<svg xmlns="http://www.w3.org/2000/svg" xmlns:xlink="http://www.w3.org/1999/xlink" width="1200" height="559" viewBox="0 0 1200 559">
  <defs>
    <clipPath id="clip-académie_blanc">
      <rect width="1200" height="559"/>
    </clipPath>
  </defs>
  <g id="académie_blanc" clip-path="url(#clip-académie_blanc)">
    <rect width="1200" height="559" fill="rgba(255,255,255,0)"/>
    <path id="Tracé_9235" data-name="Tracé 9235" d="M197.426,310.346a4.128,4.128,0,0,0,4.091-4.091l-2.975-126.082,2.232-88.146h71.037a4.127,4.127,0,0,0,4.091-4.091V54.091A4.127,4.127,0,0,0,271.811,50H71.716a4.127,4.127,0,0,0-4.091,4.091V87.936a4.127,4.127,0,0,0,4.091,4.091h70.665l2.232,88.146-2.975,126.082a4.127,4.127,0,0,0,4.091,4.091Zm87.774,0a4.127,4.127,0,0,0,4.091-4.091l-.372-81.079c0-43.887,29.01-65.83,68.434-65.83a36.082,36.082,0,0,1,6.323.372A3.823,3.823,0,0,0,367.767,156V122.9a5.148,5.148,0,0,0-4.091-4.835,55.487,55.487,0,0,0-7.81-.744c-27.894,0-53.557,11.158-68.434,33.845l1.116-28.266a3.615,3.615,0,0,0-3.719-4.091H237.222a4.128,4.128,0,0,0-4.091,4.091l1.488,91.493-1.488,91.865a4.128,4.128,0,0,0,4.091,4.091Zm120.5-98.188c0-39.424,14.505-60.623,42.771-59.88,26.407.372,41.284,22.687,40.912,63.6-.744,40.54-14.877,61-42.027,61C420.58,277.245,405.7,255.3,405.7,212.158ZM539.6,310.346a4.127,4.127,0,0,0,4.091-4.091L542.2,214.762l1.488-91.865a4.127,4.127,0,0,0-4.091-4.091h-48.35a3.615,3.615,0,0,0-3.719,4.091l.744,16.737c-13.017-15.993-31.613-24.547-55.417-24.547-52.069,0-84.055,44.631-84.055,100.047,0,55.788,28.638,98.932,82.939,98.932,24.175,0,43.143-9.67,56.532-26.035l-.744,18.224a4.128,4.128,0,0,0,4.091,4.091Zm59.88-42.4c12.273-24.175,34.589-67.69,51.325-87.4,8.554-10.042,13.017-12.645,26.035-14.5s26.779-8.182,26.779-23.8c0-10.042-7.438-17.852-17.48-17.852-30.5,0-68.806,87.03-82.2,110.461l-.744-.744,11.9-31.985c5.207-14.133,14.133-39.8,14.133-54.3,0-13.017-7.067-23.431-20.456-23.431-23.431,0-48.722,47.978-60.623,65.458l10.042,6.323c6.695-8.926,24.547-43.887,35.7-43.887,3.719,0,5.207,5.951,5.207,9.3,0,6.323-2.975,14.877-5.207,21.2l-43.515,127.57h27.15ZM730.02,100.21a4.127,4.127,0,0,0,4.091-4.091V54.091A4.127,4.127,0,0,0,730.02,50H681.67a4.127,4.127,0,0,0-4.091,4.091V96.118a4.127,4.127,0,0,0,4.091,4.091Zm.372,210.137a4.127,4.127,0,0,0,4.091-4.091L733,214.762l1.488-91.865a4.127,4.127,0,0,0-4.091-4.091H681.3a4.127,4.127,0,0,0-4.091,4.091l1.488,91.865-1.488,91.493a4.127,4.127,0,0,0,4.091,4.091Z" transform="translate(175.946 58.315)" fill="#fff"/>
    <path id="Tracé_9234" data-name="Tracé 9234" d="M190,47.958a.477.477,0,0,0,.479-.479V44.443a.477.477,0,0,0-.479-.479H173.539L173.38,28.2l.16-17.043a.477.477,0,0,0-.479-.479h-4.1a.477.477,0,0,0-.479.479l.213,17.309-.213,19.013a.477.477,0,0,0,.479.479Zm-.426-26.47a.918.918,0,0,0,.746-.426l2.983-4.527a1.962,1.962,0,0,0,.266-.905V11.157a.477.477,0,0,0-.479-.479H189.2a.477.477,0,0,0-.479.479v5.006l-1.331,4.847a.4.4,0,0,0,.373.479ZM200.861,32.62,207.039,14.3l6.284,18.321Zm22.422,15.339a.318.318,0,0,0,.32-.426L210.661,11.1a.79.79,0,0,0-.639-.426h-5.539a.789.789,0,0,0-.639.426L190.8,47.532a.341.341,0,0,0,.32.426h4.1a.746.746,0,0,0,.639-.479l3.568-10.652h15.339l3.675,10.652a.746.746,0,0,0,.639.479ZM256.623,34.8a.435.435,0,0,0-.426-.479H252.15a.566.566,0,0,0-.533.479c-.746,6.338-4.793,9.746-10.971,9.746-7.563,0-12.143-5.219-12.143-15.285,0-9.214,4.367-15.179,12.2-15.179,5.432,0,9.533,2.769,10.705,8.947a.624.624,0,0,0,.586.479h3.941a.374.374,0,0,0,.373-.479c-1.758-9.64-8.1-13.048-15.552-13.048-10.705,0-17.362,7.509-17.362,19.28,0,12.036,6.444,19.386,17.362,19.386C249.273,48.651,255.185,44.284,256.623,34.8Zm9.587-2.184L272.388,14.3l6.285,18.321Zm22.422,15.339a.318.318,0,0,0,.32-.426L276.009,11.1a.789.789,0,0,0-.639-.426h-5.539a.789.789,0,0,0-.639.426L256.144,47.532a.341.341,0,0,0,.319.426h4.1a.746.746,0,0,0,.639-.479l3.568-10.652H280.11l3.675,10.652a.746.746,0,0,0,.639.479Zm15.125,0c10.013,0,18.747-5.912,18.747-18.641,0-12.2-8.149-18.641-18.854-18.641h-11.77a.477.477,0,0,0-.479.479l.213,17.682L291.4,47.479a.477.477,0,0,0,.479.479Zm-7.4-19.226c0-3.355.16-14.007.16-14.06h7.456c7.4,0,13.421,4.793,13.421,14.646,0,10.332-6.6,14.646-13.208,14.646h-7.669C296.514,43.911,296.354,32.194,296.354,28.732ZM346.418,3.86a.515.515,0,0,0,.266-.639L345.672.292a.431.431,0,0,0-.586-.266l-11.5,5.432a.512.512,0,0,0-.213.639l.639,1.651a.538.538,0,0,0,.639.266Zm3.2,44.1a.477.477,0,0,0,.479-.479V44.443a.477.477,0,0,0-.479-.479H331.292l-.213-13.9h16.83a.477.477,0,0,0,.479-.479V26.548a.477.477,0,0,0-.479-.479h-16.83l.213-11.4h17.9a.477.477,0,0,0,.479-.479V11.157a.477.477,0,0,0-.479-.479H326.659a.477.477,0,0,0-.479.479l.213,17.575-.213,18.747a.477.477,0,0,0,.479.479Zm8.575-25.777-.107-5.166,11.93,30.517a.789.789,0,0,0,.639.426h3.036a.789.789,0,0,0,.639-.426l11.5-30.2-.107,4.74-.107,9.906-.053,15.5a.477.477,0,0,0,.479.479h4.048a.477.477,0,0,0,.479-.479l-.16-17.842.16-18.481a.477.477,0,0,0-.479-.479h-5.379a.79.79,0,0,0-.639.426L372.514,41.727,360.638,11.1a.789.789,0,0,0-.639-.426h-5.752a.477.477,0,0,0-.479.479l.16,18.481-.213,17.842a.477.477,0,0,0,.479.479h3.675a.477.477,0,0,0,.479-.479l-.053-15.5Zm42.021,25.777a.477.477,0,0,0,.479-.479L400.475,29l.213-17.842a.477.477,0,0,0-.479-.479h-4.1a.477.477,0,0,0-.479.479L395.842,29l-.213,18.481a.477.477,0,0,0,.479.479Zm28.866,0a.477.477,0,0,0,.479-.479V44.443a.477.477,0,0,0-.479-.479H410.754l-.213-13.9h16.83a.477.477,0,0,0,.479-.479V26.548a.477.477,0,0,0-.479-.479h-16.83l.213-11.4h17.895a.477.477,0,0,0,.479-.479V11.157a.477.477,0,0,0-.479-.479H406.121a.477.477,0,0,0-.479.479l.213,17.575-.213,18.747a.477.477,0,0,0,.479.479Z" transform="translate(479.669 402.034)" fill="#fff"/>
  </g>
</svg>
